Jinko-Regular.ufo
<glyph name="numbersign" format="1">
  <advance width="1253"/>
  <unicode hex="0023"/>
  <outline>
    <contour>
      <point x="190" y="55" type="line"/>
      <point x="277" y="455" type="line"/>
      <point x="32" y="455" type="line"/>
      <point x="32" y="544" type="line"/>
      <point x="296" y="544" type="line"/>
      <point x="400" y="997" type="line"/>
      <point x="114" y="997" type="line"/>
      <point x="114" y="1082" type="line"/>
      <point x="419" y="1082" type="line"/>
      <point x="492" y="1410" type="line"/>
      <point x="627" y="1410" type="line"/>
      <point x="556" y="1082" type="line"/>
      <point x="868" y="1082" type="line"/>
      <point x="939" y="1410" type="line"/>
      <point x="1073" y="1410" type="line"/>
      <point x="1002" y="1082" type="line"/>
      <point x="1219" y="1082" type="line"/>
      <point x="1219" y="997" type="line"/>
      <point x="979" y="997" type="line"/>
      <point x="877" y="544" type="line"/>
      <point x="1153" y="544" type="line"/>
      <point x="1153" y="455" type="line"/>
      <point x="855" y="455" type="line"/>
      <point x="768" y="55" type="line"/>
      <point x="639" y="55" type="line"/>
      <point x="724" y="455" type="line"/>
      <point x="409" y="455" type="line"/>
      <point x="323" y="55" type="line"/>
    </contour>
    <contour>
      <point x="431" y="543" type="line"/>
      <point x="747" y="543" type="line"/>
      <point x="851" y="999" type="line"/>
      <point x="534" y="999" type="line"/>
    </contour>
  </outline>
</glyph>
<glyph name="parenleft" format="1">
  <advance width="577"/>
  <unicode hex="0028"/>
  <outline>
    <contour>
      <point x="413" y="-225" type="line"/>
      <point x="194" y="9"/>
      <point x="50" y="262"/>
      <point x="50" y="640" type="curve" smooth="yes"/>
      <point x="50" y="976"/>
      <point x="196" y="1248"/>
      <point x="413" y="1481" type="curve"/>
      <point x="534" y="1481" type="line"/>
      <point x="534" y="1445" type="line"/>
      <point x="364" y="1251"/>
      <point x="215" y="986"/>
      <point x="215" y="637" type="curve" smooth="yes"/>
      <point x="215" y="276"/>
      <point x="382" y="-6"/>
      <point x="534" y="-187" type="curve"/>
      <point x="534" y="-225" type="line"/>
    </contour>
  </outline>
</glyph>
<glyph name="plus" format="1">
  <advance width="1200"/>
  <unicode hex="002B"/>
  <outline>
    <contour>
      <point x="525" y="76" type="line"/>
      <point x="525" y="495" type="line"/>
      <point x="93" y="495" type="line"/>
      <point x="93" y="632" type="line"/>
      <point x="525" y="632" type="line"/>
      <point x="525" y="1038" type="line"/>
      <point x="663" y="1038" type="line"/>
      <point x="663" y="632" type="line"/>
      <point x="1106" y="632" type="line"/>
      <point x="1106" y="495" type="line"/>
      <point x="663" y="495" type="line"/>
      <point x="663" y="76" type="line"/>
    </contour>
  </outline>
</glyph>
<glyph name="two" format="1">
  <advance width="1172"/>
  <unicode hex="0032"/>
  <outline>
    <contour>
      <point x="112" y="0" type="line"/>
      <point x="112" y="156" type="line"/>
      <point x="540" y="553"/>
      <point x="883" y="858"/>
      <point x="883" y="1090" type="curve" smooth="yes"/>
      <point x="883" y="1226"/>
      <point x="835" y="1362"/>
      <point x="603" y="1362" type="curve" smooth="yes"/>
      <point x="384" y="1362"/>
      <point x="192" y="1255"/>
      <point x="172" y="1237" type="curve"/>
      <point x="135" y="1371" type="line"/>
      <point x="210" y="1437"/>
      <point x="426" y="1503"/>
      <point x="591" y="1503" type="curve" smooth="yes"/>
      <point x="903" y="1503"/>
      <point x="1066" y="1354"/>
      <point x="1066" y="1115" type="curve" smooth="yes"/>
      <point x="1066" y="822"/>
      <point x="785" y="563"/>
      <point x="312" y="137" type="curve"/>
      <point x="1056" y="137" type="line"/>
      <point x="1056" y="0" type="line"/>
    </contour>
  </outline>
</glyph>
<glyph name="six" format="1">
  <advance width="1234"/>
  <unicode hex="0036"/>
  <outline>
    <contour>
      <point x="630" y="-23" type="curve" smooth="yes"/>
      <point x="330" y="-23"/>
      <point x="122" y="188"/>
      <point x="122" y="536" type="curve" smooth="yes"/>
      <point x="122" y="988"/>
      <point x="392" y="1481"/>
      <point x="885" y="1481" type="curve"/>
      <point x="918" y="1349" type="line"/>
      <point x="565" y="1347"/>
      <point x="357" y="1029"/>
      <point x="301" y="702" type="curve"/>
      <point x="378" y="854"/>
      <point x="579" y="890"/>
      <point x="667" y="890" type="curve" smooth="yes"/>
      <point x="901" y="890"/>
      <point x="1127" y="734"/>
      <point x="1127" y="453" type="curve" smooth="yes"/>
      <point x="1127" y="164"/>
      <point x="922" y="-23"/>
    </contour>
    <contour>
      <point x="615" y="118" type="curve" smooth="yes"/>
      <point x="871" y="118"/>
      <point x="950" y="277"/>
      <point x="950" y="455" type="curve" smooth="yes"/>
      <point x="950" y="599"/>
      <point x="850" y="753"/>
      <point x="647" y="753" type="curve" smooth="yes"/>
      <point x="404" y="753"/>
      <point x="313" y="595"/>
      <point x="313" y="422" type="curve" smooth="yes"/>
      <point x="313" y="275"/>
      <point x="420" y="118"/>
    </contour>
  </outline>
</glyph>
<glyph name="less" format="1">
  <advance width="1114"/>
  <unicode hex="003C"/>
  <outline>
    <contour>
      <point x="1109" y="-14" type="line"/>
      <point x="1" y="504" type="line"/>
      <point x="1" y="641" type="line"/>
      <point x="1109" y="1157" type="line"/>
      <point x="1109" y="979" type="line"/>
      <point x="192" y="569" type="line"/>
      <point x="1109" y="155" type="line"/>
    </contour>
  </outline>
</glyph>
<glyph name="question" format="1">
  <advance width="906"/>
  <unicode hex="003F"/>
  <outline>
    <contour>
      <point x="366" y="459" type="curve"/>
      <point x="307" y="500" type="line"/>
      <point x="458" y="708"/>
      <point x="675" y="991"/>
      <point x="675" y="1158" type="curve" smooth="yes"/>
      <point x="675" y="1269"/>
      <point x="615" y="1364"/>
      <point x="444" y="1364" type="curve" smooth="yes"/>
      <point x="313" y="1364"/>
      <point x="170" y="1303"/>
      <point x="73" y="1240" type="curve"/>
      <point x="73" y="1384" type="line"/>
      <point x="133" y="1420"/>
      <point x="282" y="1503"/>
      <point x="461" y="1503" type="curve" smooth="yes"/>
      <point x="723" y="1503"/>
      <point x="834" y="1347"/>
      <point x="834" y="1174" type="curve" smooth="yes"/>
      <point x="834" y="918"/>
      <point x="563" y="653"/>
    </contour>
    <contour>
      <point x="350" y="-2" type="curve" smooth="yes"/>
      <point x="269" y="-2"/>
      <point x="203" y="61"/>
      <point x="203" y="142" type="curve" smooth="yes"/>
      <point x="203" y="223"/>
      <point x="269" y="289"/>
      <point x="350" y="289" type="curve" smooth="yes"/>
      <point x="431" y="289"/>
      <point x="494" y="223"/>
      <point x="494" y="142" type="curve" smooth="yes"/>
      <point x="494" y="61"/>
      <point x="431" y="-2"/>
    </contour>
  </outline>
</glyph>
<glyph name="at" format="1">
  <advance width="1691"/>
  <unicode hex="0040"/>
  <outline>
    <contour>
      <point x="841" y="-119" type="curve" smooth="yes"/>
      <point x="376" y="-119"/>
      <point x="85" y="175"/>
      <point x="85" y="609" type="curve" smooth="yes"/>
      <point x="85" y="1049"/>
      <point x="418" y="1365"/>
      <point x="873" y="1365" type="curve" smooth="yes"/>
      <point x="1303" y="1365"/>
      <point x="1606" y="1077"/>
      <point x="1606" y="682" type="curve" smooth="yes"/>
      <point x="1606" y="388"/>
      <point x="1461" y="170"/>
      <point x="1259" y="170" type="curve" smooth="yes"/>
      <point x="1144" y="170"/>
      <point x="1061" y="245"/>
      <point x="1044" y="324" type="curve"/>
      <point x="990" y="229"/>
      <point x="867" y="194"/>
      <point x="770" y="194" type="curve" smooth="yes"/>
      <point x="530" y="194"/>
      <point x="419" y="381"/>
      <point x="419" y="588" type="curve" smooth="yes"/>
      <point x="419" y="844"/>
      <point x="563" y="1047"/>
      <point x="816" y="1047" type="curve" smooth="yes"/>
      <point x="954" y="1047"/>
      <point x="1047" y="970"/>
      <point x="1083" y="920" type="curve"/>
      <point x="1104" y="1015" type="line"/>
      <point x="1206" y="1015" type="line"/>
      <point x="1144" y="470" type="line" smooth="yes"/>
      <point x="1141" y="447"/>
      <point x="1140" y="427"/>
      <point x="1140" y="410" type="curve" smooth="yes"/>
      <point x="1140" y="271"/>
      <point x="1209" y="254"/>
      <point x="1267" y="254" type="curve" smooth="yes"/>
      <point x="1388" y="254"/>
      <point x="1491" y="413"/>
      <point x="1491" y="664" type="curve" smooth="yes"/>
      <point x="1491" y="983"/>
      <point x="1288" y="1261"/>
      <point x="877" y="1261" type="curve" smooth="yes"/>
      <point x="443" y="1261"/>
      <point x="230" y="946"/>
      <point x="230" y="608" type="curve" smooth="yes"/>
      <point x="230" y="197"/>
      <point x="488" y="-9"/>
      <point x="843" y="-9" type="curve" smooth="yes"/>
      <point x="990" y="-9"/>
      <point x="1117" y="24"/>
      <point x="1241" y="92" type="curve"/>
      <point x="1284" y="-1" type="line"/>
      <point x="1157" y="-83"/>
      <point x="988" y="-119"/>
    </contour>
    <contour>
      <point x="793" y="279" type="curve" smooth="yes"/>
      <point x="932" y="279"/>
      <point x="1011" y="367"/>
      <point x="1018" y="385" type="curve"/>
      <point x="1068" y="838" type="line"/>
      <point x="1028" y="894"/>
      <point x="950" y="951"/>
      <point x="835" y="951" type="curve" smooth="yes"/>
      <point x="675" y="951"/>
      <point x="558" y="851"/>
      <point x="558" y="589" type="curve" smooth="yes"/>
      <point x="558" y="432"/>
      <point x="612" y="279"/>
    </contour>
  </outline>
</glyph>
<glyph name="O" format="1">
  <advance width="1554"/>
  <unicode hex="004F"/>
  <outline>
    <contour>
      <point x="777" y="118" type="curve" smooth="yes"/>
      <point x="1163" y="118"/>
      <point x="1274" y="424"/>
      <point x="1274" y="740" type="curve" smooth="yes"/>
      <point x="1274" y="1054"/>
      <point x="1165" y="1362"/>
      <point x="777" y="1362" type="curve" smooth="yes"/>
      <point x="378" y="1362"/>
      <point x="278" y="1041"/>
      <point x="278" y="740" type="curve" smooth="yes"/>
      <point x="278" y="422"/>
      <point x="380" y="118"/>
    </contour>
    <contour>
      <point x="777" y="-23" type="curve" smooth="yes"/>
      <point x="315" y="-23"/>
      <point x="95" y="279"/>
      <point x="95" y="740" type="curve" smooth="yes"/>
      <point x="95" y="1204"/>
      <point x="316" y="1503"/>
      <point x="777" y="1503" type="curve" smooth="yes"/>
      <point x="1238" y="1503"/>
      <point x="1459" y="1205"/>
      <point x="1459" y="740" type="curve" smooth="yes"/>
      <point x="1459" y="281"/>
      <point x="1239" y="-23"/>
    </contour>
  </outline>
</glyph>
<glyph name="V" format="1">
  <advance width="1312"/>
  <unicode hex="0056"/>
  <outline>
    <contour>
      <point x="530" y="0" type="line"/>
      <point x="-17" y="1481" type="line"/>
      <point x="173" y="1481" type="line"/>
      <point x="537" y="464" type="line"/>
      <point x="660" y="115" type="line"/>
      <point x="661" y="115" type="line"/>
      <point x="784" y="465" type="line"/>
      <point x="1137" y="1481" type="line"/>
      <point x="1329" y="1481" type="line"/>
      <point x="792" y="0" type="line"/>
    </contour>
  </outline>
</glyph>
<glyph name="W" format="1">
  <advance width="1963"/>
  <unicode hex="0057"/>
  <outline>
    <contour>
      <point x="410" y="0" type="line"/>
      <point x="12" y="1481" type="line"/>
      <point x="190" y="1481" type="line"/>
      <point x="441" y="530" type="line"/>
      <point x="504" y="284" type="line"/>
      <point x="507" y="284" type="line"/>
      <point x="577" y="529" type="line"/>
      <point x="860" y="1481" type="line"/>
      <point x="1119" y="1481" type="line"/>
      <point x="1397" y="526" type="line"/>
      <point x="1463" y="285" type="line"/>
      <point x="1524" y="525" type="line"/>
      <point x="1778" y="1481" type="line"/>
      <point x="1952" y="1481" type="line"/>
      <point x="1542" y="0" type="line"/>
      <point x="1366" y="0" type="line"/>
      <point x="993" y="1353" type="line"/>
      <point x="585" y="0" type="line"/>
    </contour>
  </outline>
</glyph>
<glyph name="backslash" format="1">
  <advance width="852"/>
  <unicode hex="005C"/>
  <outline>
    <contour>
      <point x="684" y="0" type="line"/>
      <point x="-6" y="1481" type="line"/>
      <point x="166" y="1481" type="line"/>
      <point x="854" y="0" type="line"/>
    </contour>
  </outline>
</glyph>
<glyph name="asciicircum" format="1">
  <advance width="1358"/>
  <unicode hex="005E"/>
  <outline>
    <contour>
      <point x="75" y="692" type="line"/>
      <point x="550" y="1481" type="line"/>
      <point x="781" y="1481" type="line"/>
      <point x="1284" y="694" type="line"/>
      <point x="1059" y="694" type="line"/>
      <point x="666" y="1366" type="line"/>
      <point x="290" y="692" type="line"/>
    </contour>
  </outline>
</glyph>
<glyph name="g" format="1">
  <advance width="1151"/>
  <unicode hex="0067"/>
  <outline>
    <contour>
      <point x="557" y="-386" type="curve" smooth="yes"/>
      <point x="370" y="-386"/>
      <point x="226" y="-315"/>
      <point x="219" y="-311" type="curve"/>
      <point x="254" y="-179" type="line"/>
      <point x="254" y="-179"/>
      <point x="379" y="-249"/>
      <point x="558" y="-249" type="curve" smooth="yes"/>
      <point x="773" y="-249"/>
      <point x="848" y="-147"/>
      <point x="848" y="56" type="curve" smooth="yes"/>
      <point x="848" y="112" type="line"/>
      <point x="772" y="20"/>
      <point x="666" y="-21"/>
      <point x="545" y="-21" type="curve" smooth="yes"/>
      <point x="293" y="-21"/>
      <point x="93" y="165"/>
      <point x="93" y="517" type="curve" smooth="yes"/>
      <point x="93" y="863"/>
      <point x="267" y="1058"/>
      <point x="540" y="1058" type="curve" smooth="yes"/>
      <point x="662" y="1058"/>
      <point x="785" y="992"/>
      <point x="847" y="892" type="curve"/>
      <point x="847" y="1032" type="line"/>
      <point x="1030" y="1032" type="line"/>
      <point x="1030" y="144" type="line" smooth="yes"/>
      <point x="1030" y="-253"/>
      <point x="885" y="-386"/>
    </contour>
    <contour>
      <point x="564" y="119" type="curve" smooth="yes"/>
      <point x="653" y="119"/>
      <point x="768" y="145"/>
      <point x="847" y="239" type="curve"/>
      <point x="847" y="793" type="line"/>
      <point x="776" y="880"/>
      <point x="646" y="918"/>
      <point x="563" y="918" type="curve" smooth="yes"/>
      <point x="338" y="918"/>
      <point x="270" y="733"/>
      <point x="270" y="518" type="curve" smooth="yes"/>
      <point x="270" y="267"/>
      <point x="383" y="119"/>
    </contour>
  </outline>
</glyph>
<glyph name="k" format="1">
  <advance width="1062"/>
  <unicode hex="006B"/>
  <outline>
    <contour>
      <point x="115" y="0" type="line"/>
      <point x="115" y="1481" type="line"/>
      <point x="298" y="1481" type="line"/>
      <point x="298" y="583" type="line"/>
      <point x="827" y="1032" type="line"/>
      <point x="1024" y="1032" type="line"/>
      <point x="1024" y="988" type="line"/>
      <point x="583" y="607" type="line"/>
      <point x="1052" y="51" type="line"/>
      <point x="1052" y="0" type="line"/>
      <point x="878" y="0" type="line"/>
      <point x="449" y="528" type="line"/>
      <point x="298" y="410" type="line"/>
      <point x="298" y="0" type="line"/>
    </contour>
  </outline>
</glyph>
<glyph name="m" format="1">
  <advance width="1685"/>
  <unicode hex="006D"/>
  <outline>
    <contour>
      <point x="121" y="0" type="line"/>
      <point x="121" y="1032" type="line"/>
      <point x="303" y="1032" type="line"/>
      <point x="303" y="869" type="line"/>
      <point x="369" y="988"/>
      <point x="508" y="1058"/>
      <point x="648" y="1058" type="curve" smooth="yes"/>
      <point x="763" y="1058"/>
      <point x="868" y="1013"/>
      <point x="918" y="882" type="curve"/>
      <point x="1007" y="1002"/>
      <point x="1148" y="1058"/>
      <point x="1269" y="1058" type="curve" smooth="yes"/>
      <point x="1446" y="1058"/>
      <point x="1580" y="941"/>
      <point x="1580" y="680" type="curve" smooth="yes"/>
      <point x="1580" y="0" type="line"/>
      <point x="1397" y="0" type="line"/>
      <point x="1397" y="658" type="line" smooth="yes"/>
      <point x="1397" y="843"/>
      <point x="1325" y="918"/>
      <point x="1202" y="918" type="curve" smooth="yes"/>
      <point x="1065" y="918"/>
      <point x="941" y="798"/>
      <point x="941" y="760" type="curve" smooth="yes"/>
      <point x="941" y="0" type="line"/>
      <point x="759" y="0" type="line"/>
      <point x="759" y="683" type="line" smooth="yes"/>
      <point x="759" y="845"/>
      <point x="674" y="918"/>
      <point x="568" y="918" type="curve" smooth="yes"/>
      <point x="443" y="918"/>
      <point x="325" y="814"/>
      <point x="303" y="748" type="curve"/>
      <point x="303" y="0" type="line"/>
    </contour>
  </outline>
</glyph>
<glyph name="n" format="1">
  <advance width="1136"/>
  <unicode hex="006E"/>
  <outline>
    <contour>
      <point x="121" y="0" type="line"/>
      <point x="121" y="1032" type="line"/>
      <point x="303" y="1032" type="line"/>
      <point x="303" y="863" type="line"/>
      <point x="387" y="994"/>
      <point x="545" y="1058"/>
      <point x="688" y="1058" type="curve" smooth="yes"/>
      <point x="882" y="1058"/>
      <point x="1031" y="935"/>
      <point x="1031" y="691" type="curve" smooth="yes"/>
      <point x="1031" y="0" type="line"/>
      <point x="848" y="0" type="line"/>
      <point x="848" y="703" type="line" smooth="yes"/>
      <point x="848" y="869"/>
      <point x="730" y="918"/>
      <point x="627" y="918" type="curve" smooth="yes"/>
      <point x="447" y="918"/>
      <point x="303" y="789"/>
      <point x="303" y="746" type="curve" smooth="yes"/>
      <point x="303" y="0" type="line"/>
    </contour>
  </outline>
</glyph>
<glyph name="z" format="1">
  <advance width="961"/>
  <unicode hex="007A"/>
  <outline>
    <contour>
      <point x="91" y="0" type="line"/>
      <point x="91" y="144" type="line"/>
      <point x="685" y="907" type="line"/>
      <point x="117" y="907" type="line"/>
      <point x="117" y="1032" type="line"/>
      <point x="884" y="1032" type="line"/>
      <point x="884" y="899" type="line"/>
      <point x="281" y="125" type="line"/>
      <point x="890" y="125" type="line"/>
      <point x="890" y="0" type="line"/>
    </contour>
  </outline>
</glyph>
<glyph name="bar" format="1">
  <advance width="379"/>
  <unicode hex="007C"/>
  <outline>
    <contour>
      <point x="98" y="-338" type="line"/>
      <point x="98" y="1481" type="line"/>
      <point x="281" y="1481" type="line"/>
      <point x="281" y="-338" type="line"/>
    </contour>
  </outline>
</glyph>
<glyph name="yen" format="1">
  <advance width="1466"/>
  <unicode hex="00A5"/>
  <outline>
    <contour>
      <point x="625" y="0" type="line"/>
      <point x="625" y="362" type="line"/>
      <point x="225" y="362" type="line"/>
      <point x="225" y="458" type="line"/>
      <point x="625" y="458" type="line"/>
      <point x="625" y="623" type="line"/>
      <point x="225" y="623" type="line"/>
      <point x="225" y="719" type="line"/>
      <point x="608" y="719" type="line"/>
      <point x="64" y="1481" type="line"/>
      <point x="259" y="1481" type="line"/>
      <point x="718" y="825" type="line"/>
      <point x="1201" y="1481" type="line"/>
      <point x="1402" y="1481" type="line"/>
      <point x="820" y="719" type="line"/>
      <point x="1216" y="719" type="line"/>
      <point x="1216" y="623" type="line"/>
      <point x="808" y="623" type="line"/>
      <point x="808" y="458" type="line"/>
      <point x="1216" y="458" type="line"/>
      <point x="1216" y="362" type="line"/>
      <point x="808" y="362" type="line"/>
      <point x="808" y="0" type="line"/>
    </contour>
  </outline>
</glyph>
<glyph name="uni00AD" format="1">
  <advance width="775"/>
  <unicode hex="00AD"/>
  <outline>
    <contour>
      <point x="98" y="513" type="line"/>
      <point x="98" y="630" type="line"/>
      <point x="676" y="630" type="line"/>
      <point x="676" y="513" type="line"/>
    </contour>
  </outline>
</glyph>
<glyph name="uni00B2" format="1">
  <advance width="1523"/>
  <unicode hex="00B2"/>
  <outline>
    <contour>
      <point x="256" y="0" type="line"/>
      <point x="1088" y="1430" type="line"/>
      <point x="1215" y="1430" type="line"/>
      <point x="383" y="0" type="line"/>
    </contour>
    <contour>
      <point x="914" y="0" type="line"/>
      <point x="914" y="98" type="line"/>
      <point x="1078" y="258"/>
      <point x="1279" y="475"/>
      <point x="1279" y="601" type="curve" smooth="yes"/>
      <point x="1279" y="680"/>
      <point x="1247" y="728"/>
      <point x="1133" y="728" type="curve" smooth="yes"/>
      <point x="1076" y="728"/>
      <point x="981" y="690"/>
      <point x="950" y="661" type="curve"/>
      <point x="926" y="756" type="line"/>
      <point x="962" y="792"/>
      <point x="1070" y="830"/>
      <point x="1152" y="830" type="curve" smooth="yes"/>
      <point x="1311" y="830"/>
      <point x="1396" y="742"/>
      <point x="1396" y="604" type="curve" smooth="yes"/>
      <point x="1396" y="443"/>
      <point x="1259" y="293"/>
      <point x="1064" y="100" type="curve"/>
      <point x="1399" y="100" type="line"/>
      <point x="1399" y="0" type="line"/>
    </contour>
    <contour>
      <point x="10" y="552" type="line"/>
      <point x="10" y="653" type="line"/>
      <point x="151" y="653" type="line"/>
      <point x="151" y="1240" type="line"/>
      <point x="-4" y="1194" type="line"/>
      <point x="-4" y="1277" type="line"/>
      <point x="77" y="1296"/>
      <point x="114" y="1332"/>
      <point x="135" y="1374" type="curve"/>
      <point x="285" y="1374" type="line"/>
      <point x="285" y="653" type="line"/>
      <point x="426" y="653" type="line"/>
      <point x="426" y="552" type="line"/>
    </contour>
  </outline>
</glyph>
<glyph name="Thorn" format="1">
  <advance width="1151"/>
  <unicode hex="00DE"/>
  <outline>
    <contour>
      <point x="176" y="0" type="line"/>
      <point x="176" y="1481" type="line"/>
      <point x="358" y="1481" type="line"/>
      <point x="358" y="1139" type="line"/>
      <point x="664" y="1139" type="line" smooth="yes"/>
      <point x="949" y="1139"/>
      <point x="1103" y="979"/>
      <point x="1103" y="744" type="curve" smooth="yes"/>
      <point x="1103" y="506"/>
      <point x="948" y="349"/>
      <point x="663" y="349" type="curve" smooth="yes"/>
      <point x="358" y="349" type="line"/>
      <point x="358" y="0" type="line"/>
    </contour>
    <contour>
      <point x="358" y="485" type="line"/>
      <point x="660" y="485" type="line" smooth="yes"/>
      <point x="804" y="485"/>
      <point x="920" y="552"/>
      <point x="920" y="744" type="curve" smooth="yes"/>
      <point x="920" y="927"/>
      <point x="809" y="1003"/>
      <point x="659" y="1003" type="curve" smooth="yes"/>
      <point x="358" y="1003" type="line"/>
    </contour>
  </outline>
</glyph>
<glyph name="dotlessi" format="1">
  <advance width="497"/>
  <unicode hex="0131"/>
  <outline>
    <contour>
      <point x="151" y="0" type="line"/>
      <point x="151" y="1032" type="line"/>
      <point x="334" y="1032" type="line"/>
      <point x="334" y="0" type="line"/>
    </contour>
  </outline>
</glyph>
<glyph name="kgreenlandic" format="1">
  <advance width="1062"/>
  <unicode hex="0138"/>
  <outline>
    <contour>
      <point x="115" y="0" type="line"/>
      <point x="115" y="1032" type="line"/>
      <point x="298" y="1032" type="line"/>
      <point x="298" y="559" type="line"/>
      <point x="299" y="559" type="line"/>
      <point x="827" y="1032" type="line"/>
      <point x="1024" y="1032" type="line"/>
      <point x="1024" y="988" type="line"/>
      <point x="583" y="592" type="line"/>
      <point x="1052" y="51" type="line"/>
      <point x="1052" y="0" type="line"/>
      <point x="878" y="0" type="line"/>
      <point x="449" y="514" type="line"/>
      <point x="298" y="387" type="line"/>
      <point x="298" y="0" type="line"/>
    </contour>
  </outline>
</glyph>
<glyph name="Lslash" format="1">
  <advance width="1116"/>
  <unicode hex="0141"/>
  <outline>
    <contour>
      <point x="227" y="0" type="line"/>
      <point x="227" y="524" type="line"/>
      <point x="75" y="415" type="line"/>
      <point x="75" y="567" type="line"/>
      <point x="227" y="675" type="line"/>
      <point x="227" y="1481" type="line"/>
      <point x="409" y="1481" type="line"/>
      <point x="409" y="807" type="line"/>
      <point x="722" y="1033" type="line"/>
      <point x="722" y="882" type="line"/>
      <point x="409" y="656" type="line"/>
      <point x="409" y="137" type="line"/>
      <point x="1078" y="137" type="line"/>
      <point x="1078" y="0" type="line"/>
    </contour>
  </outline>
</glyph>
<glyph name="hungarumlaut" format="1">
  <advance width="667"/>
  <unicode hex="02DD"/>
  <outline>
    <contour>
      <point x="2" y="1123" type="line"/>
      <point x="190" y="1466" type="line"/>
      <point x="374" y="1466" type="line"/>
      <point x="123" y="1123" type="line"/>
    </contour>
    <contour>
      <point x="253" y="1123" type="line"/>
      <point x="453" y="1466" type="line"/>
      <point x="665" y="1466" type="line"/>
      <point x="375" y="1123" type="line"/>
    </contour>
  </outline>
</glyph>
<glyph name="quotesinglbase" format="1">
  <advance width="420"/>
  <unicode hex="201A"/>
  <outline>
    <contour>
      <point x="53" y="-242" type="line"/>
      <point x="152" y="244" type="line"/>
      <point x="345" y="244" type="line"/>
      <point x="180" y="-242" type="line"/>
    </contour>
  </outline>
</glyph>
<glyph name="daggerdbl" format="1">
  <advance width="1080"/>
  <unicode hex="2021"/>
  <outline>
    <contour>
      <point x="636" y="388" type="line"/>
      <point x="636" y="0" type="line"/>
      <point x="454" y="0" type="line"/>
      <point x="454" y="388" type="line"/>
      <point x="90" y="388" type="line"/>
      <point x="90" y="526" type="line"/>
      <point x="454" y="526" type="line"/>
      <point x="454" y="920" type="line"/>
      <point x="90" y="920" type="line"/>
      <point x="90" y="1058" type="line"/>
      <point x="454" y="1058" type="line"/>
      <point x="454" y="1481" type="line"/>
      <point x="636" y="1481" type="line"/>
      <point x="636" y="1058" type="line"/>
      <point x="991" y="1058" type="line"/>
      <point x="991" y="920" type="line"/>
      <point x="636" y="920" type="line"/>
      <point x="636" y="526" type="line"/>
      <point x="991" y="526" type="line"/>
      <point x="991" y="388" type="line"/>
    </contour>
  </outline>
</glyph>
<glyph name="bullet" format="1">
  <advance width="904"/>
  <unicode hex="2022"/>
  <outline>
    <contour>
      <point x="90" y="655" type="curve" smooth="yes"/>
      <point x="90" y="894"/>
      <point x="272" y="1015"/>
      <point x="454" y="1015" type="curve" smooth="yes"/>
      <point x="634" y="1015"/>
      <point x="814" y="895"/>
      <point x="814" y="655" type="curve" smooth="yes"/>
      <point x="814" y="415"/>
      <point x="632" y="295"/>
      <point x="451" y="295" type="curve" smooth="yes"/>
      <point x="270" y="295"/>
      <point x="90" y="415"/>
    </contour>
  </outline>
</glyph>
<glyph name="fraction" format="1">
  <advance width="862"/>
  <unicode hex="2044"/>
  <outline>
    <contour>
      <point x="-10" y="-1" type="line"/>
      <point x="701" y="1427" type="line"/>
      <point x="872" y="1427" type="line"/>
      <point x="165" y="-1" type="line"/>
    </contour>
  </outline>
</glyph>
<glyph name="notequal" format="1">
  <advance width="1094"/>
  <unicode hex="2260"/>
  <outline>
    <contour>
      <point x="208" y="39" type="line"/>
      <point x="342" y="297" type="line"/>
      <point x="98" y="297" type="line"/>
      <point x="90" y="406" type="line"/>
      <point x="401" y="406" type="line"/>
      <point x="543" y="688" type="line"/>
      <point x="98" y="688" type="line"/>
      <point x="98" y="799" type="line"/>
      <point x="594" y="799" type="line"/>
      <point x="733" y="1054" type="line"/>
      <point x="860" y="1053" type="line"/>
      <point x="725" y="799" type="line"/>
      <point x="1000" y="799" type="line"/>
      <point x="1000" y="688" type="line"/>
      <point x="677" y="688" type="line"/>
      <point x="533" y="406" type="line"/>
      <point x="992" y="406" type="line"/>
      <point x="1000" y="297" type="line"/>
      <point x="477" y="297" type="line"/>
      <point x="343" y="38" type="line"/>
    </contour>
  </outline>
</glyph>
<glyph name="lessequal" format="1">
  <advance width="1093"/>
  <unicode hex="2264"/>
  <outline>
    <contour>
      <point x="94" y="1" type="line"/>
      <point x="94" y="168" type="line"/>
      <point x="998" y="168" type="line"/>
      <point x="998" y="1" type="line"/>
    </contour>
    <contour>
      <point x="998" y="295" type="line"/>
      <point x="94" y="613" type="line"/>
      <point x="94" y="750" type="line"/>
      <point x="998" y="1066" type="line"/>
      <point x="998" y="888" type="line"/>
      <point x="282" y="678" type="line"/>
      <point x="998" y="464" type="line"/>
    </contour>
  </outline>
</glyph>
<glyph name="uniFB01" format="1">
  <advance width="1205"/>
  <unicode hex="FB01"/>
  <outline>
    <contour>
      <point x="957" y="1186" type="curve" smooth="yes"/>
      <point x="873" y="1186"/>
      <point x="832" y="1247"/>
      <point x="832" y="1307" type="curve" smooth="yes"/>
      <point x="832" y="1368"/>
      <point x="871" y="1428"/>
      <point x="957" y="1428" type="curve" smooth="yes"/>
      <point x="1040" y="1428"/>
      <point x="1080" y="1367"/>
      <point x="1080" y="1307" type="curve" smooth="yes"/>
      <point x="1080" y="1247"/>
      <point x="1041" y="1186"/>
    </contour>
    <contour>
      <point x="205" y="0" type="line"/>
      <point x="205" y="907" type="line"/>
      <point x="25" y="907" type="line"/>
      <point x="25" y="1032" type="line"/>
      <point x="205" y="1032" type="line"/>
      <point x="205" y="1069" type="line" smooth="yes"/>
      <point x="205" y="1320"/>
      <point x="274" y="1433"/>
      <point x="540" y="1433" type="curve" smooth="yes"/>
      <point x="614" y="1433"/>
      <point x="618" y="1428"/>
      <point x="672" y="1422" type="curve"/>
      <point x="672" y="1281" type="line"/>
      <point x="672" y="1281"/>
      <point x="610" y="1292"/>
      <point x="570" y="1292" type="curve" smooth="yes"/>
      <point x="424" y="1292"/>
      <point x="387" y="1257"/>
      <point x="387" y="1032" type="curve"/>
      <point x="1042" y="1032" type="line"/>
      <point x="1042" y="0" type="line"/>
      <point x="859" y="0" type="line"/>
      <point x="859" y="907" type="line"/>
      <point x="388" y="907" type="line"/>
      <point x="388" y="0" type="line"/>
    </contour>
  </outline>
</glyph>
<glyph name="dblgravecmb" format="1">
  <advance width="667"/>
  <outline>
    <contour>
      <point x="665" y="1123" type="line"/>
      <point x="544" y="1123" type="line"/>
      <point x="293" y="1466" type="line"/>
      <point x="477" y="1466" type="line"/>
    </contour>
    <contour>
      <point x="414" y="1123" type="line"/>
      <point x="292" y="1123" type="line"/>
      <point x="2" y="1466" type="line"/>
      <point x="214" y="1466" type="line"/>
    </contour>
  </outline>
</glyph>
